<svg width="44" height="47" viewBox="0 0 44 47" fill="none" xmlns="http://www.w3.org/2000/svg">
<path fill-rule="evenodd" clip-rule="evenodd" d="M39.267 10.0548L40.7065 11.8888L41.4036 10.9967L42.0986 10.1046C43.6399 8.13259 43.2846 5.28206 41.3244 3.74931L37.7503 0.955451C35.7811 -0.58186 32.9312 -0.224149 31.3989 1.74108L30.0067 3.5229L32.1346 4.47609L33.1825 3.13349C33.9499 2.15091 35.3782 1.9743 36.3583 2.73952L39.9323 5.53345C40.9102 6.29874 41.0867 7.72733 40.3171 8.70998L39.267 10.0548Z" fill="#6D4CE1"/>
<path fill-rule="evenodd" clip-rule="evenodd" d="M21.5923 10.6933V24.2602H12.5346V26.5334H21.5923V26.5424H23.8476V26.5334H23.8567V24.2602H23.8476V10.6933H21.5923Z" fill="#6D4CE1"/>
<path fill-rule="evenodd" clip-rule="evenodd" d="M11.7964 1.74511C10.257 -0.226573 7.4045 -0.572935 5.44399 0.959619L1.86705 3.75299C-0.102455 5.29003 -0.442101 8.14231 1.0928 10.1072L2.48505 11.8888L3.92487 10.0552L2.87667 8.7128C2.10922 7.73032 2.28126 6.30198 3.26155 5.53682L6.83616 2.74338C7.81415 1.97822 9.24266 2.1548 10.0124 3.13728L11.0605 4.47965L13.1886 3.52662L12.4913 2.63699L11.7964 1.74511Z" fill="#6D4CE1"/>
<path fill-rule="evenodd" clip-rule="evenodd" d="M39.7078 24.277C39.7078 34.2803 31.5974 42.3908 21.5941 42.3908C11.5907 42.3908 3.48027 34.2803 3.48027 24.277C3.48027 14.2736 11.5907 6.16316 21.5941 6.16316C31.5974 6.16322 39.7078 14.2737 39.7078 24.277ZM1.21606 24.277C1.21606 31.1172 4.58523 37.1695 9.75671 40.867L5.26225 45.341L6.8472 46.9192L11.6949 42.0919C14.6248 43.7244 18.0008 44.655 21.5941 44.655C25.1149 44.655 28.4252 43.7629 31.3144 42.1916L36.0624 46.9192L37.6474 45.341L33.2684 40.9801C38.5304 37.2962 41.9721 31.1874 41.9721 24.277C41.9721 13.0215 32.8494 3.89893 21.5941 3.89893C10.3409 3.89893 1.21609 13.0238 1.21609 24.277L1.21606 24.277Z" fill="#6D4CE1"/>
</svg>
