<svg width="58" height="43" viewBox="0 0 58 43" fill="none" xmlns="http://www.w3.org/2000/svg">
<path fill-rule="evenodd" clip-rule="evenodd" d="M51.5157 16.6753L41.6781 6.8377L45.9487 2.56721L55.7863 12.4048L51.5157 16.6753ZM46.3539 19.5783C45.7177 20.2146 45.2999 21.0049 45.1459 21.8636C44.6884 24.4111 43.4789 26.7259 41.6483 28.5574L40.9437 29.2621L35.1432 23.4616C35.2692 23.4709 35.3958 23.4771 35.5233 23.4771C36.1107 23.4771 36.7117 23.3742 37.31 23.1294C37.7787 22.9377 38.0031 22.4022 37.8114 21.9337C37.6197 21.4651 37.0847 21.2405 36.6157 21.4322C34.2559 22.3977 31.4266 19.7369 31.1117 19.4302C31.1064 19.425 31.1011 19.42 31.0958 19.4151L31.0632 19.3825C31.0631 19.3824 31.063 19.3824 31.0629 19.3823L31.0345 19.354C31.0344 19.3539 31.0342 19.3537 31.034 19.3536L30.2621 18.5812L31.1374 17.7058C31.4956 17.3476 31.4956 16.7671 31.1375 16.409C30.7793 16.0511 30.1989 16.051 29.8408 16.409L28.3193 17.9306C28.3187 17.9311 28.318 17.9317 28.3175 17.9323C28.3169 17.9328 28.3164 17.9335 28.3158 17.9341L24.8174 21.4324C24.0985 22.1513 22.929 22.1511 22.2102 21.4324C21.8621 21.0843 21.6703 20.6213 21.6703 20.1289C21.6703 19.6364 21.8621 19.1734 22.2103 18.8253L28.2486 12.7867C28.5846 12.4509 28.9579 12.1555 29.3592 11.908C30.3127 11.3187 31.4139 11.0072 32.5438 11.0072C33.4064 11.0072 34.2749 11.1944 35.0558 11.5489C36.8321 12.3548 38.9433 11.9793 40.3091 10.614L41.5854 9.33782L49.09 16.8424L46.3539 19.5783ZM40.5786 33.2565C40.3429 33.4924 40.0295 33.6224 39.6963 33.6224C39.363 33.6224 39.0496 33.4924 38.8135 33.256L29.9184 24.3629C29.5601 24.0049 28.9797 24.005 28.6217 24.3631C28.2638 24.7211 28.2639 25.3017 28.6219 25.6598L38.2033 35.2402C38.4391 35.4759 38.5688 35.7894 38.5688 36.1228C38.5688 36.457 38.439 36.7708 38.2036 37.0062C37.7162 37.4932 36.9236 37.4933 36.4369 37.0065L34.8205 35.3901C34.8115 35.3808 34.8028 35.3714 34.7935 35.3622C34.7908 35.3595 34.7878 35.3571 34.785 35.3544L27.3546 27.9241C26.9964 27.566 26.416 27.566 26.0579 27.9241C25.6997 28.2821 25.6997 28.8627 26.0579 29.2207L33.5121 36.6748C33.7399 36.9084 33.8654 37.2174 33.8654 37.5453C33.8654 37.8788 33.7355 38.1923 33.4998 38.428C33.0134 38.9147 32.2214 38.9147 31.7345 38.428L23.6518 30.3451C23.2936 29.987 22.7132 29.987 22.3551 30.3451C21.9969 30.7032 21.9969 31.2838 22.3551 31.6418L28.3465 37.6333C28.3482 37.635 28.3495 37.6369 28.3513 37.6385C28.5869 37.8736 28.7165 38.1865 28.7165 38.5197C28.7165 38.853 28.5867 39.1665 28.35 39.4032C28.1146 39.6392 27.8013 39.7691 27.4675 39.7691C27.3869 39.7691 27.3081 39.7608 27.2309 39.7462C27.3793 38.7469 27.0699 37.6921 26.3023 36.9243C25.679 36.3011 24.8502 35.9578 23.9688 35.9578C23.9443 35.9578 23.9198 35.959 23.8953 35.9596C23.9141 35.0907 23.5936 34.2158 22.932 33.5541C22.3085 32.9309 21.4799 32.5876 20.5984 32.5876C20.5432 32.5876 20.4884 32.5889 20.4337 32.5916C20.4777 31.693 20.1575 30.7799 19.4727 30.095C18.6392 29.2615 17.4674 28.9688 16.3955 29.2151L15.738 28.5576C13.9282 26.7471 12.7242 24.461 12.2556 21.9466C12.084 21.0257 11.6387 20.1843 10.9681 19.5135L9.35176 17.8972L18.5473 8.70162L20.839 10.9933C21.7199 11.8742 22.9192 12.3455 24.1475 12.3455C24.6976 12.3455 25.2539 12.2509 25.7898 12.0561C26.0497 11.9616 26.3184 11.8938 26.5908 11.8507L20.9136 17.5281C20.2189 18.2226 19.8363 19.1461 19.8363 20.1284C19.8363 21.1106 20.2189 22.0341 20.9134 22.7286C21.6304 23.4456 22.5718 23.8039 23.5137 23.8038C24.4553 23.8038 25.3971 23.4453 26.1141 22.7286L28.9655 19.8772L29.7373 20.6496C29.7375 20.6498 29.7376 20.6499 29.7379 20.6501L29.7699 20.6822L29.8008 20.7131C29.8009 20.7132 29.8011 20.7134 29.8013 20.7135L29.8019 20.7141C29.8107 20.7228 29.8194 20.7311 29.828 20.7394L40.5789 31.4903C40.8147 31.726 40.9444 32.0395 40.9444 32.373C40.9444 32.707 40.8147 33.0205 40.5786 33.2565L40.5786 33.2565ZM25.0054 40.295C24.7285 40.5719 24.3604 40.7244 23.9688 40.7244C23.5771 40.7244 23.2089 40.5718 22.9321 40.295C22.3603 39.7234 22.3603 38.7931 22.9321 38.2214C23.2179 37.9356 23.5932 37.7926 23.9688 37.7926C24.3441 37.7926 24.7197 37.9356 25.0054 38.2214C25.5772 38.7931 25.5772 39.7234 25.0054 40.295ZM21.6351 36.9248C21.3584 37.2018 20.9902 37.3542 20.5984 37.3542C20.2068 37.3542 19.8386 37.2016 19.5617 36.9248C18.99 36.3531 18.99 35.4229 19.5617 34.8512C19.8476 34.5654 20.2228 34.4224 20.5985 34.4224C20.9738 34.4224 21.3494 34.5654 21.6351 34.8512C22.2069 35.4228 22.2069 36.3531 21.6351 36.9248ZM18.1762 33.4659C17.6047 34.0373 16.6746 34.0375 16.1026 33.4659C15.8257 33.1888 15.6732 32.8207 15.6732 32.429C15.6732 32.0375 15.8258 31.6692 16.1027 31.3923C16.3885 31.1065 16.7638 30.9635 17.1393 30.9635C17.5147 30.9635 17.8904 31.1065 18.1761 31.3923C18.7477 31.9639 18.7477 32.8941 18.1762 33.4659ZM7.07456 17.5814L2.80407 13.3109L13.9012 2.21379L18.1718 6.48427L7.07456 17.5814ZM57.7313 11.7564L46.597 0.62202C46.239 0.26389 45.6585 0.26389 45.3003 0.62202L39.7331 6.18916C39.5613 6.36105 39.4647 6.59427 39.4647 6.83748C39.4647 7.0807 39.5613 7.31391 39.7331 7.48581L40.2885 8.04118L39.0123 9.3172C38.1838 10.1454 36.8982 10.3714 35.8135 9.87907C34.7965 9.41743 33.6659 9.17356 32.5438 9.17356C31.2113 9.17356 29.9092 9.50803 28.7523 10.1416C28.2698 10.0227 27.7746 9.96182 27.2745 9.96182C26.5513 9.96182 25.841 10.0866 25.1633 10.333C24.0812 10.7261 22.9212 10.4824 22.1355 9.69697L19.844 7.40531L20.1169 7.13239C20.2888 6.9605 20.3853 6.72727 20.3853 6.48407C20.3853 6.24085 20.2888 6.00763 20.1169 5.83573L14.5498 0.2686C14.1915 -0.08953 13.6111 -0.08953 13.253 0.2686L0.859096 12.6625C0.501076 13.0207 0.501076 13.6011 0.859096 13.9592L6.42612 19.5263C6.59812 19.6983 6.83124 19.7948 7.07455 19.7948C7.31787 19.7948 7.55087 19.6983 7.72298 19.5263L8.05499 19.1943L9.6712 20.8105C10.079 21.2183 10.3493 21.7275 10.4528 22.2828C10.9895 25.1626 12.3686 27.7807 14.4412 29.8543L14.7456 30.1588C14.161 30.7745 13.8394 31.5766 13.8394 32.4288C13.8394 33.3102 14.1828 34.139 14.806 34.7623C15.4494 35.4057 16.2942 35.7272 17.1394 35.7272C17.1945 35.7272 17.2493 35.7258 17.3044 35.723C17.2598 36.6221 17.58 37.5361 18.2651 38.2214C18.8884 38.8447 19.7171 39.188 20.5986 39.188C20.6231 39.188 20.6476 39.1867 20.6721 39.1862C20.6533 40.055 20.9739 40.93 21.6354 41.5916C22.2587 42.2151 23.0875 42.5582 23.969 42.5582C24.8505 42.5582 25.6791 42.2148 26.3025 41.5916C26.355 41.5392 26.4044 41.4849 26.4528 41.4299C26.7774 41.5431 27.1207 41.6033 27.4677 41.6033C28.2922 41.6033 29.0668 41.2821 29.6476 40.6993C29.9567 40.3903 30.1913 40.0268 30.344 39.6308L30.4379 39.7247C31.0388 40.3256 31.828 40.6261 32.6173 40.6261C33.4066 40.6261 34.1958 40.3256 34.7967 39.7247C35.1161 39.4054 35.356 39.0283 35.5081 38.6171C36.0459 39.0083 36.6827 39.2042 37.3198 39.2042C38.1091 39.2042 38.8988 38.9038 39.5002 38.3032C40.0823 37.7211 40.4029 36.9467 40.4029 36.1228C40.4029 35.8739 40.373 35.6298 40.3162 35.3938C40.9034 35.2745 41.443 34.9862 41.8759 34.5527C42.4579 33.9707 42.7785 33.1966 42.7785 32.3733C42.7785 31.7246 42.5787 31.1071 42.2097 30.5893L42.9452 29.8538C45.0419 27.7561 46.427 25.1052 46.951 22.1875C47.0388 21.699 47.2808 21.2452 47.651 20.8748L50.3867 18.1391L50.8676 18.6201C51.0467 18.7991 51.2814 18.8886 51.516 18.8886C51.7506 18.8886 51.9854 18.7991 52.1645 18.6201L57.7316 13.0529C57.9035 12.881 58 12.6478 58 12.4046C58 12.1614 57.9032 11.9284 57.7313 11.7564L57.7313 11.7564Z" fill="#6D4CE1"/>
<path fill-rule="evenodd" clip-rule="evenodd" d="M51.525 13.1067C51.525 12.5993 51.9341 12.188 52.4387 12.188C52.9434 12.188 53.3525 12.5993 53.3525 13.1067C53.3525 13.6141 52.9434 14.0254 52.4387 14.0254C51.9341 14.0254 51.525 13.6141 51.525 13.1067Z" fill="#6D4CE1"/>
<path fill-rule="evenodd" clip-rule="evenodd" d="M5.67989 14.0135C5.67989 13.5088 6.09123 13.0997 6.59864 13.0997C7.10604 13.0997 7.51738 13.5088 7.51738 14.0135C7.51738 14.5181 7.10604 14.9272 6.59864 14.9272C6.09123 14.9272 5.67989 14.5181 5.67989 14.0135Z" fill="#6D4CE1"/>
</svg>
