<svg width="44" height="55" viewBox="0 0 44 55" fill="none" xmlns="http://www.w3.org/2000/svg">
<path fill-rule="evenodd" clip-rule="evenodd" d="M30.2901 30.4131C26.9704 34.571 25.1933 39.3101 25.1262 44.1387H18.2411C18.174 39.2095 16.408 34.4145 13.2337 30.6031C11.5906 28.6248 10.6853 26.1211 10.6965 23.5503C10.7188 17.7382 15.4468 12.8314 21.2477 12.5967C24.2767 12.4849 27.1381 13.5691 29.3064 15.6592C31.486 17.7494 32.682 20.566 32.682 23.5839C32.6708 26.0987 31.8549 28.4571 30.2901 30.4131H30.2901ZM30.916 13.9827C28.2781 11.4454 24.8132 10.1377 21.1471 10.2718C14.1167 10.5513 8.3828 16.4975 8.36043 23.5391C8.34926 26.6576 9.44463 29.6978 11.4454 32.0897C14.3291 35.5546 15.9162 39.9249 15.9162 44.4069C15.9162 44.4069 15.6144 46.4635 17.0787 46.4635H26.2886C27.7864 46.4635 27.4511 44.4069 27.4511 44.4069C27.4511 40.0255 29.0606 35.6887 32.112 31.8661C34.0009 29.4854 35.0069 26.624 35.0069 23.5838C35.0069 19.9289 33.5538 16.5087 30.916 13.9826L30.916 13.9827Z" fill="#6D4CE1"/>
<path fill-rule="evenodd" clip-rule="evenodd" d="M37.0214 6.35332C36.5632 5.89548 35.8256 5.89548 35.3785 6.35332L32.5398 9.18972C32.0816 9.64756 32.0816 10.3846 32.5398 10.8312C32.9981 11.2779 33.7357 11.2891 34.1827 10.8312L37.0214 7.99486C37.4797 7.54818 37.4797 6.81116 37.0214 6.35332Z" fill="#6D4CE1"/>
<path fill-rule="evenodd" clip-rule="evenodd" d="M26.3298 48.0513H17.035C16.387 48.0513 15.8732 48.5755 15.8732 49.2111C15.8732 49.858 16.3982 50.371 17.035 50.371H26.3298C26.9778 50.371 27.4917 49.8468 27.4917 49.2111C27.4917 48.5755 26.9666 48.0513 26.3298 48.0513Z" fill="#6D4CE1"/>
<path fill-rule="evenodd" clip-rule="evenodd" d="M24.5793 52.4343H18.7982C18.1497 52.4343 17.6353 52.9585 17.6353 53.5941C17.6353 54.241 18.1608 54.754 18.7982 54.754H24.5793C25.2278 54.754 25.7422 54.2298 25.7422 53.5941C25.7422 52.9585 25.2166 52.4343 24.5793 52.4343Z" fill="#6D4CE1"/>
<path fill-rule="evenodd" clip-rule="evenodd" d="M21.6824 6.33493C22.3292 6.33493 22.8423 5.80981 22.8423 5.17297V1.16196C22.8423 0.513935 22.3181 -9.99601e-06 21.6824 -9.99601e-06C21.0467 -9.99601e-06 20.5225 0.52511 20.5225 1.16196V5.17297C20.5225 5.82099 21.0356 6.33493 21.6824 6.33493Z" fill="#6D4CE1"/>
<path fill-rule="evenodd" clip-rule="evenodd" d="M10.8346 10.839C11.2934 10.3806 11.2934 9.64278 10.8346 9.19559L7.99274 6.356C7.534 5.89765 6.79556 5.89765 6.34802 6.356C5.90046 6.81437 5.88928 7.5522 6.34802 7.99939L9.18992 10.839C9.64866 11.2861 10.3871 11.2861 10.8346 10.839Z" fill="#6D4CE1"/>
<path fill-rule="evenodd" clip-rule="evenodd" d="M42.2029 20.5227H38.192C37.5439 20.5227 37.03 21.0468 37.03 21.6825C37.03 22.3182 37.5551 22.8424 38.192 22.8424H42.2029C42.8509 22.8424 43.3648 22.3182 43.3648 21.6825C43.3648 21.0468 42.8397 20.5227 42.2029 20.5227Z" fill="#6D4CE1"/>
<path fill-rule="evenodd" clip-rule="evenodd" d="M5.17297 20.5227H1.16196C0.513944 20.5227 0 21.0468 0 21.6825C0 22.3182 0.52512 22.8424 1.16196 22.8424H5.17297C5.82098 22.8424 6.33492 22.3182 6.33492 21.6825C6.33492 21.0468 5.82098 20.5227 5.17297 20.5227Z" fill="#6D4CE1"/>
</svg>
