<svg width="40" height="56" viewBox="0 0 40 56" fill="none" xmlns="http://www.w3.org/2000/svg">
<path fill-rule="evenodd" clip-rule="evenodd" d="M39.5043 28.3876L36.1566 22.2718V18.0797C36.1566 8.11052 28.0467 0 18.0783 0C8.10995 0 0.000119991 8.11052 0 18.0797V21.1844C0 25.0411 1.15936 28.7302 3.35629 31.8771V40.7768C3.35629 41.372 3.83885 41.8545 4.43394 41.8545C5.02902 41.8545 5.5116 41.372 5.5116 40.7768V31.5327C5.5116 31.3052 5.43961 31.0835 5.30598 30.8994C3.24484 28.061 2.15544 24.7017 2.15544 21.1844V18.0797C2.15544 9.29906 9.29839 2.1555 18.0784 2.1555C26.8583 2.1555 34.0013 9.29906 34.0013 18.0797V22.5476C34.0013 22.7284 34.0469 22.9064 34.1338 23.0651L37.6138 29.4228C37.8768 29.9032 37.688 30.3195 37.5947 30.4764C37.5017 30.6325 37.2269 30.9949 36.683 30.9949C36.6811 30.9949 36.6793 30.9949 36.6774 30.9949L35.0839 30.9875C35.0822 30.9875 35.0806 30.9875 35.079 30.9875C34.794 30.9875 34.5206 31.1004 34.3187 31.3015C34.1155 31.5038 34.0013 31.7786 34.0013 32.0653V36.8752C34.0013 39.4454 31.9104 41.5365 29.3403 41.5365H26.1051C24.6369 41.5365 23.4424 42.7311 23.4424 44.1994V52.4372L8.79253 45.852C8.2495 45.6079 7.61173 45.8502 7.36776 46.3932C7.12377 46.9361 7.36603 47.5741 7.90884 47.818L24.0782 55.0862C24.2194 55.1496 24.3698 55.1809 24.5199 55.1809C24.7247 55.1809 24.9283 55.1226 25.1053 55.0081C25.4122 54.8095 25.5976 54.4689 25.5976 54.1032V44.1993C25.5976 43.9195 25.8252 43.6919 26.105 43.6919H29.3402C33.0988 43.6919 36.1565 40.6339 36.1565 36.8751V33.1479L36.6673 33.1503C36.6725 33.1503 36.6776 33.1503 36.6827 33.1503C37.8275 33.1503 38.8598 32.5639 39.4462 31.5793C40.0353 30.5904 40.057 29.3972 39.5043 28.3876L39.5043 28.3876Z" fill="#6D4CE1"/>
<path fill-rule="evenodd" clip-rule="evenodd" d="M28.8437 19.4889C28.8437 19.5972 28.6599 19.7701 28.3604 19.8055L26.973 19.9696C26.553 20.0192 26.2008 20.3101 26.0726 20.7132C25.929 21.1649 25.7455 21.6072 25.5277 22.0277C25.333 22.4035 25.3762 22.8586 25.6383 23.1908L26.5036 24.2882C26.6904 24.5251 26.6983 24.7774 26.6216 24.854L24.7329 26.7429C24.6561 26.8194 24.4037 26.8114 24.1672 26.6248L23.0696 25.7596C22.7372 25.4976 22.2824 25.4545 21.9065 25.6491C21.4858 25.867 21.0433 26.0504 20.5916 26.1941C20.1886 26.3222 19.8978 26.6744 19.8481 27.0945L19.6841 28.4818C19.6486 28.7813 19.4757 28.9653 19.3674 28.9653H16.6961C16.5878 28.9653 16.415 28.7813 16.3795 28.4819L16.2156 27.0945C16.1659 26.6744 15.8751 26.3221 15.4719 26.194C15.0207 26.0504 14.5783 25.8671 14.1574 25.6491C14.001 25.568 13.831 25.5283 13.6619 25.5283C13.4243 25.5283 13.1884 25.6067 12.9944 25.7598L11.8969 26.6251C11.6602 26.8117 11.408 26.8196 11.3313 26.7431L9.4425 24.8541C9.36589 24.7775 9.37386 24.5252 9.56053 24.2884L10.4258 23.191C10.6878 22.8586 10.7312 22.4037 10.5364 22.0279C10.3185 21.6072 10.1352 21.165 9.99152 20.7133C9.86337 20.3103 9.51116 20.0194 9.09117 19.9697L7.70379 19.8057C7.40428 19.7701 7.22042 19.5973 7.22042 19.489V16.8176C7.22042 16.7093 7.40439 16.5364 7.70379 16.501L9.09117 16.3369C9.51127 16.2873 9.86347 15.9965 9.99161 15.5933C10.1352 15.1421 10.3186 14.6998 10.5366 14.2789C10.7314 13.9031 10.6882 13.4482 10.426 13.1158L9.56085 12.0182C9.37408 11.7813 9.3663 11.5291 9.44282 11.4526L11.3318 9.56366C11.4084 9.48703 11.6605 9.49501 11.8974 9.68167L12.995 10.547C13.3272 10.809 13.782 10.8523 14.1581 10.6576C14.5784 10.4398 15.0206 10.2564 15.4719 10.1129C15.8751 9.98463 16.1659 9.63243 16.2156 9.21232L16.3795 7.82505C16.4151 7.52554 16.5878 7.34157 16.6961 7.34157H19.3674C19.4756 7.34157 19.6486 7.52554 19.6841 7.82494L19.8481 9.21232C19.8978 9.63231 20.1886 9.98452 20.5917 10.1128C21.0432 10.2564 21.4855 10.4398 21.9062 10.6577C22.2818 10.8523 22.7369 10.8091 23.0691 10.547L24.1666 9.68167C24.4034 9.49489 24.656 9.48703 24.7324 9.56365L26.6212 11.4525C26.6978 11.5291 26.69 11.7814 26.5033 12.0182L25.6381 13.1157C25.3761 13.448 25.3328 13.9031 25.5275 14.2788C25.7454 14.6993 25.9288 15.1416 26.0725 15.5934C26.2008 15.9965 26.553 16.2873 26.973 16.3368L28.3604 16.5009C28.6597 16.5364 28.8437 16.7092 28.8437 16.8175V19.4889ZM28.6135 14.3602L27.89 14.2747C27.8437 14.1572 27.7954 14.0406 27.7449 13.9248L28.196 13.3526C29.0438 12.2773 29.0222 10.8052 28.1455 9.92833L26.2566 8.03938C25.3797 7.16252 23.9075 7.14097 22.8321 7.98894L22.26 8.44008C22.1443 8.38975 22.0276 8.34136 21.9102 8.29513L21.8246 7.57175C21.6637 6.21174 20.6072 5.18616 19.3673 5.18616H16.696C15.4562 5.18616 14.3998 6.21184 14.2389 7.57207L14.1534 8.29534C14.036 8.34157 13.9195 8.38986 13.8039 8.44019L13.2318 7.98904C12.1563 7.14107 10.6844 7.16263 9.80741 8.03948L7.91833 9.92855C7.0417 10.8053 7.02005 12.2775 7.86801 13.3528L8.31904 13.9248C8.26862 14.0407 8.22021 14.1573 8.17398 14.2748L7.45051 14.3603C6.09038 14.5212 5.0647 15.5776 5.0647 16.8175V19.4889C5.0647 20.7288 6.09038 21.7851 7.45039 21.946L8.17376 22.0316C8.22011 22.1491 8.2684 22.2658 8.31883 22.3816L7.86769 22.9537C7.01972 24.0292 7.04139 25.5014 7.91814 26.3782L9.80709 28.2671C10.6836 29.1439 12.1558 29.1656 13.2313 28.3177L13.8035 27.8665C13.9192 27.9169 14.0358 27.9653 14.1533 28.0116L14.2389 28.735C14.3998 30.0951 15.4562 31.1208 16.696 31.1208H19.3673C20.6073 31.1208 21.6637 30.0952 21.8246 28.735L21.9102 28.0117C22.0279 27.9652 22.1447 27.9168 22.2605 27.8664L22.8327 28.3174C23.908 29.1653 25.3801 29.1436 26.257 28.2669L28.1459 26.378C29.0226 25.5013 29.0443 24.029 28.1963 22.9535L27.7452 22.3815C27.7956 22.2657 27.8439 22.149 27.8902 22.0315L28.6136 21.9459C29.9736 21.785 30.9993 20.7286 30.9993 19.4888V16.8174C30.9994 15.5774 29.9736 14.5211 28.6135 14.3602H28.6135Z" fill="#6D4CE1"/>
<path fill-rule="evenodd" clip-rule="evenodd" d="M18.0321 21.4503C16.2143 21.4503 14.7353 19.9713 14.7353 18.1535C14.7353 16.3357 16.2143 14.8567 18.0321 14.8567C19.8501 14.8567 21.3289 16.3355 21.3291 18.1535C21.3291 19.9713 19.8501 21.4503 18.0321 21.4503ZM18.0321 12.7012C15.0257 12.7012 12.5798 15.147 12.5798 18.1535C12.5798 21.16 15.0257 23.6058 18.0321 23.6058C21.0385 23.6058 23.4846 21.1599 23.4846 18.1535C23.4846 15.1471 21.0386 12.7012 18.0321 12.7012Z" fill="#6D4CE1"/>
<path fill-rule="evenodd" clip-rule="evenodd" d="M3.45872 44.9944C3.45872 44.3977 3.94023 43.914 4.5342 43.914C5.12818 43.914 5.60969 44.3977 5.60969 44.9944C5.60969 45.5912 5.12818 46.0749 4.5342 46.0749C3.94023 46.0749 3.45872 45.5912 3.45872 44.9944Z" fill="#6D4CE1"/>
</svg>
