<svg width="49" height="44" viewBox="0 0 49 44" fill="none" xmlns="http://www.w3.org/2000/svg">
<path fill-rule="evenodd" clip-rule="evenodd" d="M24.1725 9.4425C23.6513 9.4425 23.2283 9.86556 23.2283 10.3867C23.2283 10.9079 23.6513 11.331 24.1725 11.331C24.6937 11.331 25.1167 10.9079 25.1167 10.3867C25.1167 9.86556 24.6937 9.4425 24.1725 9.4425Z" fill="#6D4CE1"/>
<path fill-rule="evenodd" clip-rule="evenodd" d="M8.49822 26.4388C9.01939 26.4388 9.44246 26.0157 9.44246 25.4946C9.44246 24.9734 9.01939 24.5503 8.49822 24.5503C7.97703 24.5503 7.55396 24.9734 7.55396 25.4946C7.55396 26.0157 7.97703 26.4388 8.49822 26.4388Z" fill="#6D4CE1"/>
<path fill-rule="evenodd" clip-rule="evenodd" d="M43.1345 22.0599C43.0257 22.172 42.9464 22.3092 42.9036 22.459C42.3622 24.3637 42.5894 26.3739 43.4794 28.0791C41.8642 27.68 40.3819 26.8106 39.2418 25.5643C38.9766 25.2751 38.5601 25.1792 38.1957 25.3245C36.7214 25.911 34.6183 26.3171 32.6328 26.4152C32.3569 22.8444 30.5757 19.4883 27.5306 16.9964H39.8471C40.3686 16.9964 40.7913 16.5737 40.7913 16.0522C40.7913 15.5306 40.3686 15.1079 39.8471 15.1079H24.6296C22.4863 14.0169 20.0796 13.3806 17.6024 13.2471C18.145 6.90517 24.2726 1.88851 31.7266 1.88851C39.7113 1.88851 46.4568 7.50971 46.4568 14.1637C46.4568 17.0492 45.2768 19.8535 43.1346 22.0599H43.1345ZM16.6187 39.6582C14.3901 39.6582 11.8506 39.2208 10.1495 38.5439C9.78509 38.3986 9.36867 38.4942 9.10347 38.7837C7.96337 40.03 6.48099 40.899 4.86581 41.2985C5.75583 39.5933 5.98304 37.5831 5.44158 35.6784C5.39879 35.5283 5.31949 35.3911 5.21068 35.2793C3.06843 33.0729 1.88849 30.2685 1.88849 27.3831C1.88849 20.7291 8.63393 15.1079 16.6187 15.1079C24.1586 15.1079 30.7823 20.351 30.7823 27.3831C30.7823 34.1517 24.4286 39.6582 16.6187 39.6582H16.6187ZM31.7266 2e-05C23.2258 2e-05 16.2487 5.86097 15.7091 13.2434C7.61331 13.6495 0 19.4872 0 27.3831C0 30.6828 1.30571 33.8799 3.68255 36.4131C4.15283 38.3518 3.58185 40.4066 2.16512 41.8234C1.89512 42.0933 1.81435 42.4995 1.96041 42.8524C2.10647 43.2051 2.45061 43.4352 2.83273 43.4352C5.52566 43.4352 8.12086 42.3792 10.0492 40.5184C11.9277 41.1587 14.3787 41.5467 16.6187 41.5467C25.1183 41.5467 32.0946 35.6873 32.6358 28.3063C34.6128 28.2185 36.6691 27.8533 38.2961 27.299C40.2244 29.1598 42.8196 30.2158 45.5125 30.2158C45.8946 30.2158 46.2388 29.9856 46.3848 29.633C46.5309 29.28 46.4501 28.8739 46.1801 28.6039C44.7634 27.1872 44.1924 25.1324 44.6627 23.1937C47.0395 20.6605 48.3452 17.4633 48.3452 14.1636C48.3452 5.95943 40.1455 0 31.7266 0V2e-05Z" fill="#6D4CE1"/>
<path fill-rule="evenodd" clip-rule="evenodd" d="M24.1725 24.5503H12.2751C11.7535 24.5503 11.3308 24.973 11.3308 25.4946C11.3308 26.0161 11.7535 26.4388 12.2751 26.4388H24.1725C24.6941 26.4388 25.1168 26.0161 25.1168 25.4946C25.1168 24.973 24.6941 24.5503 24.1725 24.5503Z" fill="#6D4CE1"/>
<path fill-rule="evenodd" clip-rule="evenodd" d="M24.1727 30.2158H8.49822C7.97666 30.2158 7.55396 30.6386 7.55396 31.1601C7.55396 31.6816 7.97666 32.1043 8.49822 32.1043H24.1727C24.6942 32.1043 25.1169 31.6816 25.1169 31.1601C25.1169 30.6386 24.6942 30.2158 24.1727 30.2158Z" fill="#6D4CE1"/>
<path fill-rule="evenodd" clip-rule="evenodd" d="M39.8471 9.4425H27.9496C27.4281 9.4425 27.0054 9.86518 27.0054 10.3867C27.0054 10.9083 27.4281 11.331 27.9496 11.331H39.8471C40.3687 11.331 40.7913 10.9083 40.7913 10.3867C40.7913 9.86518 40.3686 9.4425 39.8471 9.4425Z" fill="#6D4CE1"/>
</svg>
