<svg width="44" height="45" viewBox="0 0 44 45" fill="none" xmlns="http://www.w3.org/2000/svg">
<path fill-rule="evenodd" clip-rule="evenodd" d="M20.4135 23.1293C20.5844 23.2996 20.8081 23.3848 21.0317 23.3848C21.2561 23.3848 21.4805 23.2991 21.6515 23.1276L25.215 19.5544C25.865 20.4385 26.25 21.5288 26.25 22.7078C26.25 25.6497 23.8566 28.0432 20.9147 28.0432C17.9727 28.0432 15.5793 25.6497 15.5793 22.7078C15.5793 19.7659 17.9727 17.3724 20.9147 17.3724C22.0469 17.3724 23.0971 17.728 23.9617 18.3319L20.4119 21.8913C20.0705 22.2336 20.0712 22.7878 20.4135 23.1293V23.1293ZM32.665 19.515C32.9456 20.55 33.0878 21.6242 33.0878 22.7078C33.0878 29.4201 27.627 34.8809 20.9148 34.8809C14.2025 34.8809 8.74169 29.42 8.74169 22.7078C8.74169 15.9956 14.2025 10.5347 20.9148 10.5347C23.8453 10.5347 26.6221 11.5658 28.8255 13.455L25.2117 17.0786C24.0188 16.1658 22.5294 15.6218 20.9148 15.6218C17.0076 15.6218 13.8287 18.8005 13.8287 22.7078C13.8287 26.6151 17.0075 29.7938 20.9148 29.7938C24.822 29.7938 28.0008 26.6151 28.0008 22.7078C28.0008 21.045 27.4236 19.5152 26.4609 18.3052L30.07 14.6862C31.2904 16.0785 32.1817 17.7318 32.6649 19.515H32.665ZM42.5856 3.70885H39.7836V0.87533C39.7836 0.39189 39.3917 0 38.9083 0C38.4249 0 38.033 0.39188 38.033 0.87533V4.22231L34.3736 7.89167C30.6821 4.53173 25.9368 2.69066 20.9146 2.69066C15.5678 2.69066 10.541 4.7728 6.7603 8.5535C2.9796 12.3342 0.897461 17.361 0.897461 22.7078C0.897461 28.0545 2.9796 33.0814 6.7603 36.8621C7.34843 37.4502 7.96676 37.9971 8.6117 38.5015L3.79093 43.3223C3.44912 43.6641 3.44912 44.2184 3.79093 44.5603C3.96188 44.7311 4.18588 44.8167 4.40987 44.8167C4.63387 44.8167 4.85795 44.7311 5.02881 44.5603L10.0577 39.5313C13.264 41.6095 17.0033 42.7249 20.9145 42.7249C24.8448 42.7249 28.6014 41.5985 31.8181 39.5008L36.8775 44.5603C37.0485 44.7311 37.2725 44.8167 37.4965 44.8167C37.7205 44.8167 37.9445 44.7311 38.1154 44.5603C38.4572 44.2185 38.4573 43.6642 38.1154 43.3223L33.2603 38.4671C33.8896 37.972 34.4938 37.437 35.0688 36.862C38.8495 33.0813 40.9316 28.0545 40.9316 22.7078C40.9316 19.6626 40.2651 16.7381 38.9508 14.0155C38.7406 13.5801 38.2171 13.3975 37.7819 13.6078C37.3465 13.818 37.164 14.3412 37.3742 14.7766C38.5731 17.2599 39.181 19.9283 39.181 22.7078C39.181 32.78 30.9866 40.9743 20.9144 40.9743C10.8422 40.9743 2.64785 32.78 2.64785 22.7078C2.64785 12.6356 10.8422 4.4412 20.9144 4.4412C25.4701 4.4412 29.7764 6.10064 33.1363 9.13207L30.064 12.2128C27.5277 9.99602 24.3116 8.78404 20.9145 8.78404C13.2369 8.78404 6.99077 15.0302 6.99077 22.7078C6.99077 30.3853 13.2371 36.6315 20.9147 36.6315C28.5922 36.6315 34.8384 30.3853 34.8384 22.7078C34.8384 21.4695 34.6757 20.2413 34.3546 19.0569C33.7912 16.9784 32.7446 15.0544 31.3087 13.4439L35.0092 9.73333C35.0104 9.73219 35.0117 9.73123 35.0128 9.73009C35.0139 9.72904 35.0147 9.7279 35.0157 9.72694L39.2716 5.45947H42.5857C43.0691 5.45947 43.461 5.06759 43.461 4.58414C43.461 4.1007 43.0691 3.70882 42.5856 3.70882L42.5856 3.70885Z" fill="#6D4CE1"/>
<path fill-rule="evenodd" clip-rule="evenodd" d="M35.592 11.7007C35.592 11.2171 35.9841 10.825 36.4677 10.825C36.9513 10.825 37.3434 11.2171 37.3434 11.7007C37.3434 12.1843 36.9513 12.5764 36.4677 12.5764C35.9841 12.5764 35.592 12.1843 35.592 11.7007Z" fill="#6D4CE1"/>
</svg>
