<svg width="21" height="21" viewBox="0 0 21 21" fill="none" xmlns="http://www.w3.org/2000/svg">
<mask id="mask0_0_351" style="mask-type:alpha" maskUnits="userSpaceOnUse" x="0" y="0" width="21" height="21">
<path fill-rule="evenodd" clip-rule="evenodd" d="M0.5 20.2742V0.725937H20.5V20.2742H0.5Z" fill="#F6F6F6"/>
</mask>
<g mask="url(#mask0_0_351)">
<path fill-rule="evenodd" clip-rule="evenodd" d="M19.5 3.49988C19.7857 3.49988 20.0245 3.5958 20.2143 3.78559C20.4041 3.97539 20.5 4.21416 20.5 4.49988C20.5 4.78151 20.4041 5.01824 20.2102 5.21009L8.21021 17.2101C8.01837 17.4019 7.7796 17.4999 7.5 17.4999C7.22041 17.4999 6.98163 17.404 6.7898 17.2101L0.7898 11.2101C0.59592 11.0183 0.5 10.7815 0.5 10.4999C0.5 10.2142 0.59592 9.97539 0.78571 9.78559C0.97551 9.5958 1.21428 9.49988 1.5 9.49988C1.78163 9.49988 2.01837 9.5958 2.2102 9.78967L7.5 15.0856L18.7898 3.78967C18.9816 3.59579 19.2184 3.49988 19.5 3.49988Z" fill="#6D4CE1"/>
</g>
</svg>
