<svg width="156" height="31" viewBox="0 0 156 31" fill="none" xmlns="http://www.w3.org/2000/svg">
<path fill-rule="evenodd" clip-rule="evenodd" d="M152.393 13.4102C152.393 14.1442 152.267 14.808 152.014 15.4016C151.762 15.9952 151.399 16.5045 150.925 16.9297C150.452 17.3589 149.88 17.6857 149.211 17.9103C148.537 18.1389 147.781 18.2533 146.943 18.2533C146.229 18.2533 145.519 18.1791 144.813 18.0308C144.103 17.8823 143.465 17.6676 142.9 17.3869C142.33 17.1103 141.867 16.7753 141.51 16.3822C141.153 15.9893 140.974 15.548 140.974 15.0586V12.2551H141.444C141.74 14.0198 142.322 15.2852 143.188 16.0514C144.051 16.8214 145.224 17.2064 146.708 17.2064C147.161 17.2064 147.594 17.1503 148.007 17.038C148.417 16.9218 148.777 16.7512 149.09 16.5266C149.407 16.298 149.662 16.0172 149.854 15.6845C150.043 15.3555 150.137 14.9724 150.137 14.5353C150.137 13.7651 149.899 13.1094 149.421 12.568C148.94 12.0265 148.22 11.4769 147.261 10.9196L144.037 9.00623C142.922 8.34449 142.132 7.67273 141.666 6.99085C141.205 6.30909 140.974 5.48084 140.974 4.50611C140.974 3.82423 141.097 3.21265 141.341 2.67115C141.586 2.12977 141.931 1.66248 142.376 1.26942C142.821 0.87635 143.353 0.57545 143.971 0.36695C144.592 0.15833 145.286 0.05421 146.052 0.05421C146.698 0.05421 147.358 0.1244 148.031 0.26466C148.705 0.40101 149.313 0.6056 149.854 0.87831C150.392 1.14711 150.837 1.47792 151.19 1.87099C151.539 2.26418 151.713 2.70534 151.713 3.1946V5.99819H151.238C150.941 4.23342 150.374 2.97597 149.536 2.2261C148.697 1.47598 147.536 1.10098 146.052 1.10098C145.671 1.10098 145.296 1.16104 144.927 1.28152C144.562 1.40579 144.239 1.58035 143.958 1.80484C143.678 2.0336 143.451 2.31424 143.279 2.64713C143.102 2.97599 143.014 3.3411 143.014 3.7421C143.014 4.12711 143.076 4.46805 143.2 4.76493C143.321 5.06168 143.503 5.34232 143.748 5.60722C143.993 5.86784 144.299 6.12455 144.668 6.37724C145.033 6.62993 145.452 6.89665 145.926 7.17741L149.144 9.08451C149.702 9.4174 150.187 9.73637 150.6 10.0412C151.009 10.3499 151.344 10.6728 151.605 11.0097C151.866 11.3506 152.062 11.7136 152.195 12.0987C152.327 12.4837 152.393 12.9208 152.393 13.4102V13.4102ZM130.079 16.7612H139.374V17.8081H127.721V3.66394C127.721 2.88171 127.612 2.25 127.396 1.7688C127.175 1.28748 126.674 1.04675 125.892 1.04675H125.368V0.52343H127.721C128.174 0.52343 128.555 0.56347 128.864 0.64367C129.169 0.71996 129.413 0.87634 129.598 1.11303C129.778 1.3496 129.904 1.6726 129.977 2.08154C130.045 2.49072 130.079 3.01819 130.079 3.66394L130.079 16.7612ZM115.466 16.7612H124.761V17.8081H113.107V3.66394C113.107 2.88171 112.999 2.25 112.782 1.7688C112.566 1.28748 112.064 1.04675 111.278 1.04675H110.755V0.52343H113.107C113.564 0.52343 113.945 0.56347 114.25 0.64367C114.555 0.71996 114.8 0.87634 114.984 1.11303C115.165 1.3496 115.291 1.6726 115.363 2.08154C115.431 2.49072 115.466 3.01819 115.466 3.66394V16.7612ZM105.202 0.52344H107.56V14.6676C107.56 15.4537 107.668 16.0855 107.885 16.5627C108.102 17.0439 108.603 17.2847 109.389 17.2847H109.913V17.8081H107.56C107.103 17.8081 106.722 17.7681 106.417 17.6877C106.112 17.6115 105.868 17.4551 105.683 17.2185C105.503 16.9818 105.376 16.663 105.304 16.2618C105.236 15.8608 105.202 15.3295 105.202 14.6676V0.52344ZM87.9171 0.52344C88.3703 0.52344 88.7494 0.56348 89.0542 0.64368C89.359 0.71997 89.6037 0.87635 89.7882 1.11304C89.9726 1.34961 90.099 1.67261 90.1672 2.08155C90.2394 2.49073 90.2755 3.0182 90.2755 3.66395V8.77174L95.7743 3.27284C96.1032 2.93983 96.4221 2.61305 96.7309 2.29213C97.0357 1.9673 97.3586 1.67458 97.6995 1.41383C98.0405 1.15309 98.4155 0.93861 98.8246 0.77015C99.2337 0.6056 99.7009 0.52345 100.226 0.52345H101.532V1.17909C100.818 1.17909 100.186 1.30555 99.6368 1.55812C99.0873 1.81093 98.4536 2.29616 97.7356 3.01405L92.6278 8.11586L98.6561 14.403C99.37 15.1529 100.124 15.8027 100.918 16.3522C101.712 16.9057 102.442 17.2245 103.108 17.3087V17.8081C102.916 17.8762 102.683 17.9365 102.41 17.9885C102.142 18.0447 101.807 18.0728 101.406 18.0728C101.037 18.0728 100.656 18.0327 100.262 17.9524C99.8694 17.8722 99.4422 17.7158 98.981 17.4833C98.5197 17.2466 98.0264 16.9276 97.501 16.5266C96.9756 16.1256 96.4 15.5922 95.7744 14.9263L90.2755 9.16871V17.8081H87.9171V3.66394C87.9171 2.88171 87.8068 2.25 87.5862 1.7688C87.3696 1.28748 86.8683 1.04675 86.0822 1.04675H85.5587V0.52343L87.9171 0.52344ZM84.0126 13.4102C84.0126 14.1442 83.8862 14.808 83.6335 15.4016C83.3809 15.9952 83.0199 16.5045 82.5506 16.9297C82.0773 17.3589 81.5038 17.6857 80.83 17.9103C80.1602 18.1389 79.4061 18.2533 78.5679 18.2533C77.8499 18.2533 77.138 18.1791 76.4321 18.0308C75.7262 17.8823 75.0885 17.6676 74.5189 17.3869C73.9534 17.1103 73.4922 16.7753 73.1352 16.3822C72.7742 15.9893 72.5937 15.548 72.5937 15.0586V12.2551H73.069C73.3658 14.0198 73.9454 15.2852 74.8077 16.0514C75.674 16.8214 76.8492 17.2064 78.3332 17.2064C78.7864 17.2064 79.2176 17.1503 79.6267 17.038C80.0358 16.9218 80.3988 16.7512 80.7157 16.5266C81.0285 16.298 81.2812 16.0172 81.4737 15.6845C81.6662 15.3555 81.7625 14.9724 81.7625 14.5353C81.7625 13.7651 81.5218 13.1094 81.0405 12.568C80.5632 12.0265 79.8433 11.4769 78.8807 10.9196L75.662 9.00623C74.543 8.34449 73.7528 7.67273 73.2916 6.99085C72.8263 6.30909 72.5937 5.48084 72.5937 4.50611C72.5937 3.82423 72.716 3.21265 72.9607 2.67115C73.2054 2.12977 73.5503 1.66248 73.9955 1.26942C74.4407 0.87635 74.9742 0.57545 75.5958 0.36695C76.2135 0.15833 76.9074 0.05421 77.6774 0.05421C78.3232 0.05421 78.983 0.1244 79.6568 0.26466C80.3266 0.40101 80.9322 0.6056 81.4737 0.87831C82.0152 1.14711 82.4604 1.47792 82.8093 1.87099C83.1582 2.26418 83.3327 2.70534 83.3327 3.1946V5.99819H82.8634C82.5666 4.23342 81.9991 2.97597 81.1609 2.2261C80.3226 1.47598 79.1614 1.10098 77.6774 1.10098C77.2924 1.10098 76.9174 1.16104 76.5524 1.28152C76.1834 1.40579 75.8605 1.58035 75.5838 1.80484C75.303 2.0336 75.0744 2.31424 74.8979 2.64713C74.7255 2.97599 74.6392 3.3411 74.6392 3.7421C74.6392 4.12711 74.6994 4.46805 74.8197 4.76493C74.9441 5.06168 75.1286 5.34232 75.3732 5.60722C75.6179 5.86784 75.9227 6.12455 76.2877 6.37724C76.6567 6.62993 77.0758 6.89665 77.5451 7.17741L80.7698 9.08451C81.3273 9.4174 81.8106 9.73637 82.2197 10.0412C82.6288 10.3499 82.9657 10.6728 83.2304 11.0097C83.4911 11.3506 83.6877 11.7136 83.82 12.0987C83.9484 12.4837 84.0126 12.9208 84.0126 13.4102L84.0126 13.4102ZM64.3214 0.52344V1.57019H58.4255V17.8081H56.0731V1.57019H53.7147C52.6679 1.57019 51.8597 1.81091 51.2902 2.29211C50.7247 2.77356 50.4419 3.53747 50.4419 4.58447H49.9185V2.61694C49.9185 2.35644 49.9486 2.09961 50.0087 1.84704C50.0689 1.59423 50.1832 1.3717 50.3517 1.17907C50.5161 0.98657 50.7427 0.83019 51.0315 0.70995C51.3203 0.58556 51.6913 0.52343 52.1445 0.52343L64.3214 0.52344ZM46.4351 0.52344C46.8883 0.52344 47.2593 0.58557 47.5481 0.70996C47.8369 0.8302 48.0635 0.98657 48.2279 1.17908C48.3924 1.37171 48.5067 1.59424 48.5709 1.84705C48.631 2.09961 48.6611 2.35645 48.6611 2.61695V4.58448H48.1377C48.1377 3.53748 47.8529 2.77357 47.2834 2.29212C46.7178 1.81092 45.9117 1.5702 44.8648 1.5702H40.7016V8.51295H46.6156V9.55983H40.7016V17.8081H38.3432V3.66395C38.3432 2.88172 38.2329 2.25001 38.0123 1.76881C37.7957 1.28749 37.2944 1.04676 36.5083 1.04676H35.9849V0.52344H46.4351ZM18.1226 9.1687C18.1226 7.89319 18.3111 6.69604 18.6881 5.57703C19.0652 4.46204 19.6066 3.48951 20.3125 2.65918C21.0184 1.82898 21.8727 1.17908 22.8755 0.70996C23.8822 0.23669 25.0052 0 26.2446 0C27.4839 0 28.6049 0.23669 29.6076 0.70996C30.6103 1.17908 31.4667 1.82898 32.1766 2.65918C32.8825 3.4895 33.4239 4.46204 33.801 5.57703C34.174 6.69605 34.3605 7.89319 34.3605 9.1687C34.3605 10.4602 34.174 11.6595 33.801 12.7665C33.4239 13.8735 32.8825 14.842 32.1766 15.6724C31.4667 16.5026 30.6103 17.1543 29.6076 17.6276C28.6049 18.0968 27.4839 18.3314 26.2446 18.3314C25.0052 18.3314 23.8822 18.0968 22.8755 17.6276C21.8727 17.1543 21.0184 16.5026 20.3125 15.6724C19.6066 14.842 19.0652 13.8735 18.6881 12.7665C18.3111 11.6596 18.1226 10.4602 18.1226 9.1687ZM31.7434 9.1687C31.7434 7.92541 31.6171 6.80237 31.3644 5.79968C31.1117 4.79699 30.7487 3.94275 30.2754 3.23669C29.8062 2.52685 29.2306 1.98535 28.5488 1.6123C27.8669 1.23522 27.0989 1.04675 26.2446 1.04675C25.3862 1.04675 24.6182 1.23523 23.9403 1.6123C23.2585 1.98535 22.6809 2.52685 22.2076 3.23669C21.7384 3.94274 21.3774 4.79699 21.1247 5.79968C20.872 6.80237 20.7457 7.92541 20.7457 9.1687C20.7457 10.4082 20.872 11.5292 21.1247 12.5319C21.3774 13.5345 21.7384 14.3888 22.2076 15.0947C22.6809 15.8047 23.2585 16.3461 23.9403 16.7191C24.6182 17.0962 25.3862 17.2847 26.2446 17.2847C27.0989 17.2847 27.8669 17.0962 28.5488 16.7191C29.2306 16.3461 29.8062 15.8047 30.2754 15.0947C30.7487 14.3888 31.1117 13.5345 31.3644 12.5319C31.6171 11.5292 31.7434 10.4082 31.7434 9.1687ZM15.7943 13.4102C15.7943 14.1442 15.668 14.808 15.4153 15.4016C15.1626 15.9952 14.7997 16.5045 14.3264 16.9297C13.8571 17.3589 13.2856 17.6857 12.6117 17.9103C11.9379 18.1389 11.1839 18.2533 10.3496 18.2533C9.6317 18.2533 8.91978 18.1791 8.21387 18.0308C7.50395 17.8823 6.86623 17.6676 6.3007 17.3869C5.73517 17.1103 5.27192 16.7753 4.91095 16.3822C4.55399 15.9893 4.3755 15.548 4.3755 15.0586V12.2551H4.84477C5.14157 14.0198 5.72314 15.2852 6.58948 16.0514C7.45181 16.8214 8.62498 17.2064 10.109 17.2064C10.5662 17.2064 10.9994 17.1503 11.4085 17.038C11.8176 16.9218 12.1786 16.7512 12.4914 16.5266C12.8083 16.298 13.0629 16.0172 13.2555 15.6845C13.448 15.3555 13.5442 14.9724 13.5442 14.5353C13.5442 13.7651 13.3036 13.1094 12.8223 12.568C12.341 12.0265 11.6211 11.4769 10.6625 10.9196L7.43776 9.00623C6.32275 8.34449 5.53261 7.67273 5.06736 6.99085C4.60611 6.30909 4.37549 5.48084 4.37549 4.50611C4.37549 3.82423 4.49782 3.21265 4.74248 2.67115C4.98714 2.12977 5.33207 1.66248 5.77727 1.26942C6.22247 0.87635 6.75391 0.57545 7.37158 0.36695C7.99326 0.15833 8.68914 0.05421 9.45922 0.05421C10.105 0.05421 10.7627 0.1244 11.4325 0.26466C12.1064 0.40101 12.714 0.6056 13.2555 0.87831C13.7969 1.14711 14.2421 1.47792 14.5911 1.87099C14.94 2.26418 15.1145 2.70534 15.1145 3.1946V5.99819H14.6392C14.3424 4.23342 13.7749 2.97597 12.9366 2.2261C12.1024 1.47598 10.9432 1.10098 9.45922 1.10098C9.07418 1.10098 8.69716 1.16104 8.32817 1.28152C7.96318 1.40579 7.64031 1.58035 7.35955 1.80484C7.0828 2.0336 6.85619 2.31424 6.67971 2.64713C6.50725 2.97599 6.42101 3.3411 6.42101 3.7421C6.42101 4.12711 6.48117 4.46805 6.6015 4.76493C6.72584 5.06168 6.90833 5.34232 7.14898 5.60722C7.39364 5.86784 7.70047 6.12455 8.06947 6.37724C8.43445 6.62993 8.85359 6.89665 9.32686 7.17741L12.5455 9.08451C13.103 9.4174 13.5884 9.73637 14.0015 10.0412C14.4106 10.3499 14.7455 10.6728 15.0062 11.0097C15.2709 11.3506 15.4674 11.7136 15.5958 12.0987C15.7281 12.4837 15.7943 12.9208 15.7943 13.4102L15.7943 13.4102Z" fill="white"/>
<path fill-rule="evenodd" clip-rule="evenodd" d="M155.218 25.5269H154.478C154.297 25.5269 154.015 25.5389 153.786 25.4006C153.606 25.2802 153.503 25.1057 153.503 24.8591C153.503 24.5643 153.66 24.3899 153.786 24.3056C153.948 24.2093 154.177 24.1853 154.49 24.1853H155.218V25.5269ZM152.529 27.9875H153.461L154.743 26.1767H155.218V27.9875H156V23.4934H154.424C153.985 23.4934 153.497 23.5115 153.106 23.8724C152.854 24.1011 152.703 24.456 152.703 24.8772C152.703 25.2983 152.878 25.6052 153.064 25.7796C153.389 26.1045 153.876 26.1346 153.93 26.1346L152.529 27.9875ZM151.825 23.8182C151.608 23.6559 151.157 23.3851 150.429 23.3851C149.039 23.3851 148.022 24.3899 148.022 25.7677C148.022 27.1091 149.033 28.12 150.429 28.12C150.85 28.12 151.374 28.0116 151.861 27.6506V26.7181C151.434 27.2296 150.874 27.4221 150.405 27.4221C149.605 27.4221 148.823 26.8385 148.823 25.7556C148.823 24.6606 149.581 24.077 150.417 24.077C150.82 24.077 151.404 24.2274 151.825 24.7508L151.825 23.8182ZM144.75 27.2956V25.906H145.49C145.736 25.906 145.977 25.906 146.182 26.0383C146.41 26.1767 146.464 26.3933 146.464 26.5977C146.464 26.9467 146.266 27.0971 146.169 27.1754C145.989 27.2956 145.736 27.2956 145.478 27.2956H144.75ZM143.974 27.9875H145.544C145.989 27.9875 146.464 27.9756 146.861 27.6086C147.072 27.4221 147.264 27.091 147.264 26.5978C147.264 26.1346 147.09 25.8337 146.915 25.6593C146.518 25.2562 145.953 25.2141 145.556 25.2141H144.75V23.4934H143.974L143.974 27.9875ZM143.149 24.2093V23.4934H139.552V24.2093H140.959V27.9875H141.742V24.2093H143.149ZM136.495 24.077C137.187 24.077 137.993 24.5883 137.993 25.7435C137.993 26.646 137.452 27.4221 136.495 27.4221C135.563 27.4221 135.021 26.6881 135.021 25.7315C135.021 24.6425 135.725 24.077 136.495 24.077ZM137.945 24.1312C137.741 23.8724 137.277 23.3851 136.411 23.3851C135.25 23.3851 134.221 24.1853 134.221 25.7315C134.221 27.3137 135.28 28.12 136.411 28.12C137.187 28.12 137.699 27.6927 137.945 27.3619V27.9875H138.727V23.4934H137.945V24.1312ZM130.623 27.2956V25.9721H131.622C131.839 25.9721 132.122 25.9721 132.326 26.1346C132.476 26.2549 132.555 26.4293 132.555 26.646C132.555 26.8506 132.434 27.025 132.29 27.1452C132.085 27.2837 131.803 27.2956 131.586 27.2956H130.623ZM130.623 25.3224V24.1853H131.315C131.568 24.1853 131.761 24.1733 131.947 24.2937C132.067 24.3778 132.164 24.5102 132.164 24.7267C132.164 24.9975 132.031 25.1178 131.947 25.19C131.773 25.3103 131.526 25.3224 131.448 25.3224H130.623ZM129.841 23.4934V27.9875H131.785C132.14 27.9875 132.573 27.8913 132.843 27.6868C133.096 27.4762 133.313 27.1452 133.313 26.664C133.313 26.3211 133.192 26.0262 132.952 25.7977C132.735 25.5931 132.519 25.527 132.392 25.4968C132.663 25.3224 132.88 25.0397 132.88 24.5943C132.88 24.1312 132.651 23.8785 132.489 23.7522C132.176 23.4994 131.797 23.4934 131.544 23.4934H129.841ZM124.511 23.4934V28.3004L127.591 24.9855V27.9875H128.367V23.1445L125.293 26.4595V23.4934L124.511 23.4934ZM121.058 27.4221C120.149 27.4221 119.554 26.6761 119.554 25.7556C119.554 24.6727 120.312 24.077 121.046 24.077C121.774 24.077 122.52 24.6606 122.52 25.7677C122.52 26.6761 121.966 27.4221 121.058 27.4221ZM119.596 27.3619C119.933 27.795 120.432 28.12 121.166 28.12C122.52 28.12 123.32 27.001 123.32 25.7677C123.32 24.5522 122.544 23.3851 121.136 23.3851C120.811 23.3851 120.113 23.4453 119.596 24.1191V23.4934H118.814V30.4784H119.596V27.3619ZM115.108 24.077C115.805 24.077 116.606 24.5883 116.606 25.7435C116.606 26.646 116.064 27.4221 115.108 27.4221C114.175 27.4221 113.634 26.6881 113.634 25.7315C113.634 24.6425 114.337 24.077 115.108 24.077ZM116.564 24.1312C116.353 23.8724 115.89 23.3851 115.023 23.3851C113.862 23.3851 112.833 24.1853 112.833 25.7315C112.833 27.3137 113.898 28.12 115.023 28.12C115.805 28.12 116.311 27.6927 116.564 27.3619V27.9875H117.34V23.4934H116.564V24.1312ZM109.236 27.2956V25.9721H110.234C110.451 25.9721 110.734 25.9721 110.938 26.1346C111.089 26.2549 111.167 26.4293 111.167 26.646C111.167 26.8506 111.047 27.025 110.908 27.1452C110.698 27.2837 110.421 27.2956 110.204 27.2956H109.236ZM109.236 25.3224V24.1853H109.934C110.18 24.1853 110.373 24.1733 110.559 24.2937C110.68 24.3778 110.776 24.5102 110.776 24.7267C110.776 24.9975 110.644 25.1178 110.559 25.19C110.385 25.3103 110.138 25.3224 110.06 25.3224H109.236ZM108.46 23.4934V27.9875H110.397C110.752 27.9875 111.185 27.8913 111.456 27.6867C111.708 27.4762 111.925 27.1452 111.925 26.664C111.925 26.3211 111.805 26.0262 111.564 25.7977C111.347 25.5931 111.131 25.527 111.005 25.4968C111.275 25.3224 111.492 25.0397 111.492 24.5943C111.492 24.1312 111.263 23.8785 111.101 23.7522C110.788 23.4994 110.409 23.4934 110.156 23.4934H108.46ZM104.88 24.077C105.704 24.077 106.462 24.6606 106.462 25.7556C106.462 26.8385 105.692 27.4221 104.88 27.4221C104.08 27.4221 103.298 26.8625 103.298 25.7556C103.298 24.6606 104.056 24.077 104.88 24.077ZM104.88 28.12C106.246 28.12 107.268 27.1091 107.268 25.7556C107.268 24.4018 106.258 23.3851 104.88 23.3851C103.508 23.3851 102.498 24.4018 102.498 25.7556C102.498 27.1091 103.514 28.12 104.88 28.12ZM99.333 27.9875H100.115V24.2093H101.998V23.4934H99.333V27.9875ZM95.7593 24.077C96.5836 24.077 97.3416 24.6606 97.3416 25.7556C97.3416 26.8385 96.5715 27.4221 95.7593 27.4221C94.9592 27.4221 94.1771 26.8625 94.1771 25.7556C94.1771 24.6606 94.9351 24.077 95.7593 24.077ZM95.7593 28.12C97.125 28.12 98.1418 27.1091 98.1418 25.7556C98.1418 24.4018 97.1371 23.3851 95.7593 23.3851C94.3816 23.3851 93.3769 24.4018 93.3769 25.7556C93.3769 27.1091 94.3937 28.12 95.7593 28.12ZM91.3855 27.2717H89.2377C89.6589 26.8926 89.7792 26.4173 89.7792 25.8939V24.2093H91.3855L91.3855 27.2717ZM88.9971 23.4934V25.4968C88.9971 25.9602 88.979 26.3752 88.8166 26.6881C88.6541 27.001 88.3714 27.2595 87.9803 27.2717V29.1788H88.6962V27.9875H92.1195V29.1788H92.8354V27.2717H92.1616V23.4934H88.9971ZM80.821 23.4934V28.3004L83.8953 24.9855V27.9875H84.6774V23.1445L81.5971 26.4595V23.4934L80.821 23.4934ZM74.7446 27.2956V25.906H75.4786C75.7252 25.906 75.9659 25.906 76.1704 26.0383C76.399 26.1767 76.4532 26.3933 76.4532 26.5977C76.4532 26.9467 76.2607 27.0971 76.1584 27.1754C75.9779 27.2956 75.7252 27.2956 75.4665 27.2956H74.7446ZM73.9625 27.9875H75.5327C75.9779 27.9875 76.4532 27.9756 76.8563 27.6086C77.0608 27.4221 77.2534 27.091 77.2534 26.5978C77.2534 26.1346 77.0789 25.8337 76.9104 25.6593C76.5073 25.2562 75.9418 25.2141 75.5447 25.2141H74.7446V23.4934H73.9625L73.9625 27.9875ZM73.1382 24.2093V23.4934H69.5405V24.2093H70.9483V27.9875H71.7304V24.2093H73.1382ZM64.8599 23.4934V28.3004L67.9402 24.9855V27.9875H68.7163V23.1445L65.642 26.4595V23.4934L64.8599 23.4934ZM61.4066 27.4221C60.4921 27.4221 59.8965 26.6761 59.8965 25.7556C59.8965 24.6727 60.6545 24.077 61.3945 24.077C62.1225 24.077 62.8685 24.6606 62.8685 25.7677C62.8685 26.6761 62.315 27.4221 61.4066 27.4221ZM59.9446 27.3619C60.2755 27.795 60.7748 28.12 61.5149 28.12C62.8685 28.12 63.6687 27.001 63.6687 25.7677C63.6687 24.5522 62.8866 23.3851 61.4788 23.3851C61.1539 23.3851 60.462 23.4453 59.9446 24.1191V23.4934H59.1625V30.4784H59.9446V27.3619ZM55.5888 24.077C56.4131 24.077 57.1711 24.6606 57.1711 25.7556C57.1711 26.8385 56.401 27.4221 55.5888 27.4221C54.7827 27.4221 54.0066 26.8625 54.0066 25.7556C54.0066 24.6606 54.7646 24.077 55.5888 24.077ZM55.5888 28.12C56.9545 28.12 57.9713 27.1091 57.9713 25.7556C57.9713 24.4018 56.9605 23.3851 55.5888 23.3851C54.2111 23.3851 53.2064 24.4018 53.2064 25.7556C53.2064 27.1091 54.2232 28.12 55.5888 28.12ZM49.6087 27.2956V25.9721H50.6014C50.818 25.9721 51.1007 25.9721 51.3053 26.1346C51.4617 26.2549 51.5339 26.4293 51.5339 26.646C51.5339 26.8506 51.4136 27.025 51.2752 27.1452C51.0706 27.2837 50.7879 27.2956 50.5713 27.2956H49.6087ZM49.6087 25.3224V24.1853H50.3006C50.5472 24.1853 50.7458 24.1733 50.9263 24.2937C51.0466 24.3778 51.1428 24.5102 51.1428 24.7267C51.1428 24.9975 51.0165 25.1178 50.9263 25.19C50.7578 25.3103 50.5051 25.3224 50.4329 25.3224H49.6087ZM48.8266 23.4934V27.9875H50.7638C51.1248 27.9875 51.558 27.8913 51.8287 27.6867C52.0754 27.4762 52.2919 27.1452 52.2919 26.664C52.2919 26.3211 52.1716 26.0262 51.937 25.7977C51.7204 25.5931 51.5038 25.527 51.3715 25.4968C51.6422 25.3224 51.8588 25.0397 51.8588 24.5943C51.8588 24.1312 51.6302 23.8785 51.4677 23.7522C51.1549 23.4994 50.7758 23.4934 50.5292 23.4934H48.8266ZM45.2529 24.077C46.0772 24.077 46.8352 24.6606 46.8352 25.7556C46.8352 26.8385 46.0651 27.4221 45.2529 27.4221C44.4468 27.4221 43.6707 26.8625 43.6707 25.7556C43.6707 24.6606 44.4287 24.077 45.2529 24.077ZM45.2529 28.12C46.6186 28.12 47.6354 27.1091 47.6354 25.7556C47.6354 24.4018 46.6246 23.3851 45.2529 23.3851C43.8752 23.3851 42.8705 24.4018 42.8705 25.7556C42.8705 27.1091 43.8872 28.12 45.2529 28.12ZM39.706 27.9875H40.482V24.2093H42.3712V23.4934H39.706V27.9875ZM36.2586 29.4315L36.77 29.6361L37.865 27.1875L37.149 26.9287L36.2586 29.4315ZM33.1843 27.2956V25.906H33.9183C34.171 25.906 34.4056 25.906 34.6102 26.0383C34.8388 26.1767 34.893 26.3933 34.893 26.5977C34.893 26.9467 34.7004 27.0971 34.6042 27.1754C34.4177 27.2956 34.171 27.2956 33.9063 27.2956H33.1843ZM32.4022 27.9875H33.9725C34.4177 27.9875 34.893 27.9756 35.296 27.6086C35.5006 27.4221 35.6931 27.091 35.6931 26.5978C35.6931 26.1346 35.5247 25.8337 35.3502 25.6593C34.9471 25.2562 34.3876 25.2141 33.9845 25.2141H33.1843V23.4934H32.4022V27.9875ZM31.578 24.2093V23.4934H27.9803V24.2093H29.3881V27.9875H30.1702V24.2093H31.578ZM24.924 24.077C25.6219 24.077 26.4221 24.5883 26.4221 25.7435C26.4221 26.646 25.8806 27.4221 24.924 27.4221C23.9975 27.4221 23.4561 26.6881 23.4561 25.7315C23.4561 24.6425 24.16 24.077 24.924 24.077ZM26.38 24.1312C26.1754 23.8724 25.7061 23.3851 24.8398 23.3851C23.6787 23.3851 22.6499 24.1853 22.6499 25.7315C22.6499 27.3137 23.7148 28.12 24.8398 28.12C25.6219 28.12 26.1273 27.6927 26.38 27.3619V27.9875H27.156V23.4934H26.38V24.1312ZM15.653 27.9875H21.4587V23.4934H20.6826V27.2717H18.9439V23.4934H18.1678V27.2717H16.4351V23.4934H15.653V27.9875ZM10.6595 30.4784H11.5258L14.8288 23.4934H13.9624L12.5005 26.7121L10.9062 23.4934H10.0218L12.0854 27.5665L10.6595 30.4784ZM9.19756 23.4934H6.03301V26.2308C6.03301 26.5016 6.02098 26.7843 5.8826 27.001C5.79236 27.1452 5.61187 27.2956 5.31707 27.2956C5.27496 27.2956 5.22081 27.2837 5.1426 27.2717V27.9875C5.22081 27.9995 5.30504 28.0116 5.38325 28.0116C5.99089 28.0116 6.32178 27.7048 6.46617 27.5304C6.8091 27.1091 6.8091 26.6098 6.8091 26.2308V24.2093H8.41544V27.9875H9.19755L9.19756 23.4934ZM4.57107 23.8182C4.35448 23.6559 3.89725 23.3851 3.16928 23.3851C1.78554 23.3851 0.768799 24.3899 0.768799 25.7677C0.768799 27.1091 1.77351 28.12 3.16928 28.12C3.59643 28.12 4.11383 28.0116 4.60115 27.6506V26.7181C4.18001 27.2296 3.61448 27.4221 3.15123 27.4221C2.35107 27.4221 1.56896 26.8385 1.56896 25.7556C1.56896 24.6606 2.32701 24.077 3.16327 24.077C3.56034 24.077 4.14392 24.2274 4.57107 24.7508V23.8182Z" fill="white"/>
</svg>
